<svg xmlns="http://www.w3.org/2000/svg" viewBox="0 0 1200 420" width="1200" height="420" role="img" aria-labelledby="t d">
  <title id="t">Rob Conery, dusk off Waikīkī</title>
  <desc id="d">A breaking wave drawn to today's buoy reading. South shore buoy: 3.6 ft swell at 12 s from the SSE. Sunset 6:19 pm HST</desc>
  <defs>
    <linearGradient id="sky" x1="0" y1="0" x2="0" y2="1">
      <stop offset="0" stop-color="#070b1f"/>
      <stop offset="0.55" stop-color="#3b1d5a"/>
      <stop offset="0.86" stop-color="#b4432b"/>
      <stop offset="1" stop-color="#f6b64b"/>
    </linearGradient>
    <linearGradient id="water" x1="0" y1="0" x2="0" y2="1">
      <stop offset="0" stop-color="#1e3a8a"/>
      <stop offset="0.5" stop-color="#0e4f75"/>
      <stop offset="1" stop-color="#06243a"/>
    </linearGradient>
    <linearGradient id="face" x1="0" y1="0" x2="1" y2="1">
      <stop offset="0" stop-color="#7cc4e8" stop-opacity="0.9"/>
      <stop offset="1" stop-color="#1d6fa5" stop-opacity="0.2"/>
    </linearGradient>
    <filter id="soft" x="-20%" y="-20%" width="140%" height="140%">
      <feGaussianBlur stdDeviation="3"/>
    </filter>
    <filter id="glow" x="-50%" y="-50%" width="200%" height="200%">
      <feGaussianBlur stdDeviation="6" result="b"/>
      <feMerge><feMergeNode in="b"/><feMergeNode in="SourceGraphic"/></feMerge>
    </filter>
    <clipPath id="frame"><rect width="1200" height="420" rx="18"/></clipPath>
  </defs>

  <g clip-path="url(#frame)">
    <rect width="1200" height="420" fill="url(#sky)"/>
    <g><circle cx="286.5" cy="137.0" r="1.3" fill="#ffffff" opacity="0.7"><animate attributeName="opacity" values="0.2;0.9;0.2" dur="7.6s" begin="0.2s" repeatCount="indefinite"/></circle><circle cx="1026.9" cy="54.1" r="0.7" fill="#ffffff" opacity="0.7"><animate attributeName="opacity" values="0.2;0.9;0.2" dur="3.3s" begin="4.9s" repeatCount="indefinite"/></circle><circle cx="1167.4" cy="79.7" r="1.1" fill="#ffffff" opacity="0.7"><animate attributeName="opacity" values="0.2;0.9;0.2" dur="5.7s" begin="3.0s" repeatCount="indefinite"/></circle><circle cx="932.9" cy="117.0" r="1.1" fill="#ffffff" opacity="0.7"><animate attributeName="opacity" values="0.2;0.9;0.2" dur="5.4s" begin="4.3s" repeatCount="indefinite"/></circle><circle cx="435.0" cy="72.2" r="0.7" fill="#ffffff" opacity="0.7"><animate attributeName="opacity" values="0.2;0.9;0.2" dur="6.7s" begin="4.2s" repeatCount="indefinite"/></circle><circle cx="429.7" cy="26.8" r="1.8" fill="#ffffff" opacity="0.7"><animate attributeName="opacity" values="0.2;0.9;0.2" dur="3.6s" begin="2.3s" repeatCount="indefinite"/></circle><circle cx="547.6" cy="16.2" r="0.7" fill="#ffffff" opacity="0.7"><animate attributeName="opacity" values="0.2;0.9;0.2" dur="6.1s" begin="3.9s" repeatCount="indefinite"/></circle><circle cx="101.4" cy="90.8" r="1.7" fill="#ffffff" opacity="0.7"><animate attributeName="opacity" values="0.2;0.9;0.2" dur="4.3s" begin="3.0s" repeatCount="indefinite"/></circle><circle cx="423.3" cy="46.9" r="1.2" fill="#ffffff" opacity="0.7"><animate attributeName="opacity" values="0.2;0.9;0.2" dur="6.6s" begin="1.5s" repeatCount="indefinite"/></circle><circle cx="189.8" cy="131.1" r="1.4" fill="#ffffff" opacity="0.7"><animate attributeName="opacity" values="0.2;0.9;0.2" dur="4.9s" begin="5.0s" repeatCount="indefinite"/></circle><circle cx="581.5" cy="26.7" r="0.9" fill="#ffffff" opacity="0.7"><animate attributeName="opacity" values="0.2;0.9;0.2" dur="7.6s" begin="2.9s" repeatCount="indefinite"/></circle><circle cx="591.3" cy="26.2" r="1.1" fill="#ffffff" opacity="0.7"><animate attributeName="opacity" values="0.2;0.9;0.2" dur="3.9s" begin="0.0s" repeatCount="indefinite"/></circle><circle cx="830.0" cy="114.0" r="0.8" fill="#ffffff" opacity="0.7"><animate attributeName="opacity" values="0.2;0.9;0.2" dur="5.7s" begin="3.7s" repeatCount="indefinite"/></circle><circle cx="1059.4" cy="55.7" r="1.1" fill="#ffffff" opacity="0.7"><animate attributeName="opacity" values="0.2;0.9;0.2" dur="6.2s" begin="4.1s" repeatCount="indefinite"/></circle><circle cx="604.3" cy="72.3" r="1.5" fill="#ffffff" opacity="0.7"><animate attributeName="opacity" values="0.2;0.9;0.2" dur="7.8s" begin="1.6s" repeatCount="indefinite"/></circle><circle cx="1061.8" cy="31.1" r="0.9" fill="#ffffff" opacity="0.7"><animate attributeName="opacity" values="0.2;0.9;0.2" dur="7.7s" begin="3.6s" repeatCount="indefinite"/></circle><circle cx="250.6" cy="7.8" r="1.0" fill="#ffffff" opacity="0.7"><animate attributeName="opacity" values="0.2;0.9;0.2" dur="7.1s" begin="3.8s" repeatCount="indefinite"/></circle><circle cx="252.8" cy="76.4" r="1.5" fill="#ffffff" opacity="0.7"><animate attributeName="opacity" values="0.2;0.9;0.2" dur="5.1s" begin="1.6s" repeatCount="indefinite"/></circle><circle cx="422.7" cy="30.8" r="1.6" fill="#ffffff" opacity="0.7"><animate attributeName="opacity" values="0.2;0.9;0.2" dur="4.0s" begin="3.4s" repeatCount="indefinite"/></circle><circle cx="839.7" cy="66.1" r="0.9" fill="#ffffff" opacity="0.7"><animate attributeName="opacity" values="0.2;0.9;0.2" dur="5.6s" begin="1.7s" repeatCount="indefinite"/></circle><circle cx="120.6" cy="57.9" r="1.2" fill="#ffffff" opacity="0.7"><animate attributeName="opacity" values="0.2;0.9;0.2" dur="6.8s" begin="4.3s" repeatCount="indefinite"/></circle><circle cx="928.6" cy="34.7" r="1.4" fill="#ffffff" opacity="0.7"><animate attributeName="opacity" values="0.2;0.9;0.2" dur="5.9s" begin="0.4s" repeatCount="indefinite"/></circle><circle cx="890.9" cy="123.4" r="1.3" fill="#ffffff" opacity="0.7"><animate attributeName="opacity" values="0.2;0.9;0.2" dur="7.3s" begin="0.3s" repeatCount="indefinite"/></circle><circle cx="896.4" cy="65.4" r="1.8" fill="#ffffff" opacity="0.7"><animate attributeName="opacity" values="0.2;0.9;0.2" dur="7.6s" begin="1.0s" repeatCount="indefinite"/></circle><circle cx="338.3" cy="127.2" r="1.6" fill="#ffffff" opacity="0.7"><animate attributeName="opacity" values="0.2;0.9;0.2" dur="7.9s" begin="4.8s" repeatCount="indefinite"/></circle><circle cx="35.3" cy="132.6" r="0.9" fill="#ffffff" opacity="0.7"><animate attributeName="opacity" values="0.2;0.9;0.2" dur="7.9s" begin="1.2s" repeatCount="indefinite"/></circle><circle cx="1109.3" cy="125.1" r="1.4" fill="#ffffff" opacity="0.7"><animate attributeName="opacity" values="0.2;0.9;0.2" dur="5.8s" begin="1.9s" repeatCount="indefinite"/></circle><circle cx="223.2" cy="4.0" r="0.6" fill="#ffffff" opacity="0.7"><animate attributeName="opacity" values="0.2;0.9;0.2" dur="3.7s" begin="3.8s" repeatCount="indefinite"/></circle><circle cx="105.1" cy="55.0" r="1.2" fill="#ffffff" opacity="0.7"><animate attributeName="opacity" values="0.2;0.9;0.2" dur="8.0s" begin="0.9s" repeatCount="indefinite"/></circle><circle cx="664.5" cy="76.0" r="1.1" fill="#ffffff" opacity="0.7"><animate attributeName="opacity" values="0.2;0.9;0.2" dur="5.7s" begin="0.3s" repeatCount="indefinite"/></circle><circle cx="812.3" cy="35.2" r="1.1" fill="#ffffff" opacity="0.7"><animate attributeName="opacity" values="0.2;0.9;0.2" dur="3.9s" begin="3.7s" repeatCount="indefinite"/></circle><circle cx="898.2" cy="64.7" r="0.7" fill="#ffffff" opacity="0.7"><animate attributeName="opacity" values="0.2;0.9;0.2" dur="7.6s" begin="0.4s" repeatCount="indefinite"/></circle><circle cx="704.1" cy="22.9" r="1.6" fill="#ffffff" opacity="0.7"><animate attributeName="opacity" values="0.2;0.9;0.2" dur="4.9s" begin="3.2s" repeatCount="indefinite"/></circle><circle cx="554.9" cy="40.4" r="1.0" fill="#ffffff" opacity="0.7"><animate attributeName="opacity" values="0.2;0.9;0.2" dur="6.4s" begin="1.5s" repeatCount="indefinite"/></circle><circle cx="16.3" cy="118.1" r="1.3" fill="#ffffff" opacity="0.7"><animate attributeName="opacity" values="0.2;0.9;0.2" dur="6.0s" begin="3.8s" repeatCount="indefinite"/></circle><circle cx="638.8" cy="43.2" r="0.8" fill="#ffffff" opacity="0.7"><animate attributeName="opacity" values="0.2;0.9;0.2" dur="7.8s" begin="4.0s" repeatCount="indefinite"/></circle><circle cx="33.8" cy="48.8" r="1.2" fill="#ffffff" opacity="0.7"><animate attributeName="opacity" values="0.2;0.9;0.2" dur="3.3s" begin="2.6s" repeatCount="indefinite"/></circle><circle cx="1091.9" cy="64.1" r="1.7" fill="#ffffff" opacity="0.7"><animate attributeName="opacity" values="0.2;0.9;0.2" dur="3.0s" begin="4.9s" repeatCount="indefinite"/></circle><circle cx="294.2" cy="64.6" r="1.7" fill="#ffffff" opacity="0.7"><animate attributeName="opacity" values="0.2;0.9;0.2" dur="4.2s" begin="0.7s" repeatCount="indefinite"/></circle><circle cx="1133.5" cy="20.6" r="1.0" fill="#ffffff" opacity="0.7"><animate attributeName="opacity" values="0.2;0.9;0.2" dur="3.2s" begin="2.7s" repeatCount="indefinite"/></circle><circle cx="216.1" cy="102.3" r="1.7" fill="#ffffff" opacity="0.7"><animate attributeName="opacity" values="0.2;0.9;0.2" dur="5.2s" begin="0.3s" repeatCount="indefinite"/></circle><circle cx="1045.0" cy="68.0" r="0.6" fill="#ffffff" opacity="0.7"><animate attributeName="opacity" values="0.2;0.9;0.2" dur="5.6s" begin="3.7s" repeatCount="indefinite"/></circle><circle cx="347.2" cy="59.4" r="1.3" fill="#ffffff" opacity="0.7"><animate attributeName="opacity" values="0.2;0.9;0.2" dur="7.3s" begin="4.9s" repeatCount="indefinite"/></circle><circle cx="746.9" cy="16.3" r="0.6" fill="#ffffff" opacity="0.7"><animate attributeName="opacity" values="0.2;0.9;0.2" dur="4.0s" begin="4.7s" repeatCount="indefinite"/></circle><circle cx="699.0" cy="121.5" r="1.4" fill="#ffffff" opacity="0.7"><animate attributeName="opacity" values="0.2;0.9;0.2" dur="6.7s" begin="0.8s" repeatCount="indefinite"/></circle><circle cx="788.5" cy="33.8" r="0.7" fill="#ffffff" opacity="0.7"><animate attributeName="opacity" values="0.2;0.9;0.2" dur="7.5s" begin="2.8s" repeatCount="indefinite"/></circle><circle cx="441.5" cy="130.2" r="1.6" fill="#ffffff" opacity="0.7"><animate attributeName="opacity" values="0.2;0.9;0.2" dur="5.8s" begin="0.0s" repeatCount="indefinite"/></circle><circle cx="490.9" cy="124.8" r="1.7" fill="#ffffff" opacity="0.7"><animate attributeName="opacity" values="0.2;0.9;0.2" dur="6.9s" begin="1.4s" repeatCount="indefinite"/></circle><circle cx="1169.6" cy="0.1" r="1.8" fill="#ffffff" opacity="0.7"><animate attributeName="opacity" values="0.2;0.9;0.2" dur="4.2s" begin="2.6s" repeatCount="indefinite"/></circle><circle cx="1047.8" cy="62.2" r="1.4" fill="#ffffff" opacity="0.7"><animate attributeName="opacity" values="0.2;0.9;0.2" dur="6.6s" begin="4.2s" repeatCount="indefinite"/></circle><circle cx="579.3" cy="39.3" r="0.9" fill="#ffffff" opacity="0.7"><animate attributeName="opacity" values="0.2;0.9;0.2" dur="4.9s" begin="2.0s" repeatCount="indefinite"/></circle><circle cx="857.7" cy="126.1" r="1.1" fill="#ffffff" opacity="0.7"><animate attributeName="opacity" values="0.2;0.9;0.2" dur="3.6s" begin="3.6s" repeatCount="indefinite"/></circle><circle cx="499.8" cy="99.0" r="1.6" fill="#ffffff" opacity="0.7"><animate attributeName="opacity" values="0.2;0.9;0.2" dur="3.9s" begin="4.4s" repeatCount="indefinite"/></circle><circle cx="915.6" cy="69.7" r="1.1" fill="#ffffff" opacity="0.7"><animate attributeName="opacity" values="0.2;0.9;0.2" dur="4.7s" begin="0.5s" repeatCount="indefinite"/></circle><circle cx="372.0" cy="66.9" r="0.9" fill="#ffffff" opacity="0.7"><animate attributeName="opacity" values="0.2;0.9;0.2" dur="6.5s" begin="0.3s" repeatCount="indefinite"/></circle><circle cx="1005.4" cy="146.2" r="1.4" fill="#ffffff" opacity="0.7"><animate attributeName="opacity" values="0.2;0.9;0.2" dur="3.2s" begin="3.0s" repeatCount="indefinite"/></circle><circle cx="1039.9" cy="26.3" r="1.5" fill="#ffffff" opacity="0.7"><animate attributeName="opacity" values="0.2;0.9;0.2" dur="4.8s" begin="1.8s" repeatCount="indefinite"/></circle><circle cx="182.4" cy="120.8" r="1.0" fill="#ffffff" opacity="0.7"><animate attributeName="opacity" values="0.2;0.9;0.2" dur="3.1s" begin="2.1s" repeatCount="indefinite"/></circle><circle cx="485.5" cy="73.5" r="1.6" fill="#ffffff" opacity="0.7"><animate attributeName="opacity" values="0.2;0.9;0.2" dur="4.6s" begin="3.5s" repeatCount="indefinite"/></circle><circle cx="93.4" cy="84.0" r="1.2" fill="#ffffff" opacity="0.7"><animate attributeName="opacity" values="0.2;0.9;0.2" dur="6.0s" begin="1.0s" repeatCount="indefinite"/></circle><circle cx="282.1" cy="66.0" r="1.7" fill="#ffffff" opacity="0.7"><animate attributeName="opacity" values="0.2;0.9;0.2" dur="7.3s" begin="1.5s" repeatCount="indefinite"/></circle><circle cx="523.4" cy="27.3" r="0.9" fill="#ffffff" opacity="0.7"><animate attributeName="opacity" values="0.2;0.9;0.2" dur="6.4s" begin="4.3s" repeatCount="indefinite"/></circle><circle cx="1025.0" cy="114.7" r="1.8" fill="#ffffff" opacity="0.7"><animate attributeName="opacity" values="0.2;0.9;0.2" dur="3.7s" begin="3.4s" repeatCount="indefinite"/></circle><circle cx="858.0" cy="54.9" r="0.8" fill="#ffffff" opacity="0.7"><animate attributeName="opacity" values="0.2;0.9;0.2" dur="6.7s" begin="4.7s" repeatCount="indefinite"/></circle><circle cx="209.6" cy="72.9" r="0.9" fill="#ffffff" opacity="0.7"><animate attributeName="opacity" values="0.2;0.9;0.2" dur="5.0s" begin="0.2s" repeatCount="indefinite"/></circle><circle cx="387.7" cy="38.2" r="1.8" fill="#ffffff" opacity="0.7"><animate attributeName="opacity" values="0.2;0.9;0.2" dur="3.1s" begin="1.5s" repeatCount="indefinite"/></circle><circle cx="929.8" cy="71.3" r="1.1" fill="#ffffff" opacity="0.7"><animate attributeName="opacity" values="0.2;0.9;0.2" dur="6.0s" begin="3.9s" repeatCount="indefinite"/></circle><circle cx="224.7" cy="94.0" r="1.5" fill="#ffffff" opacity="0.7"><animate attributeName="opacity" values="0.2;0.9;0.2" dur="5.6s" begin="0.2s" repeatCount="indefinite"/></circle><circle cx="153.0" cy="139.8" r="1.5" fill="#ffffff" opacity="0.7"><animate attributeName="opacity" values="0.2;0.9;0.2" dur="3.7s" begin="2.1s" repeatCount="indefinite"/></circle><circle cx="331.4" cy="126.6" r="1.6" fill="#ffffff" opacity="0.7"><animate attributeName="opacity" values="0.2;0.9;0.2" dur="3.1s" begin="1.3s" repeatCount="indefinite"/></circle></g>
    
    
  <radialGradient id="sunglow" cx="50%" cy="50%" r="50%">
    <stop offset="0%" stop-color="#ff8c42" stop-opacity="0.75"/>
    <stop offset="100%" stop-color="#ff8c42" stop-opacity="0"/>
  </radialGradient>
  <circle cx="712" cy="290" r="172.8" fill="url(#sunglow)">
    <animate attributeName="r" values="162;189;162" dur="9s" repeatCount="indefinite"/>
  </circle>
  <circle cx="712" cy="290" r="54" fill="#ffb347"/>
    <polygon points="760,300 830,286 880,262 925,246 955,236 985,231 1010,233 1040,240 1075,238 1110,246 1150,262 1200,282 1200,300" fill="#120d1f"/>

    <!-- sea -->
    <rect x="0" y="300" width="1200" height="120" fill="url(#water)"/>
    <g><animateTransform attributeName="transform" type="translate" values="0 0;-80 0" dur="10s" repeatCount="indefinite"/><path d="M-80 318 q20 -4 40 0 t40 0 q20 -4 40 0 t40 0 q20 -4 40 0 t40 0 q20 -4 40 0 t40 0 q20 -4 40 0 t40 0 q20 -4 40 0 t40 0 q20 -4 40 0 t40 0 q20 -4 40 0 t40 0 q20 -4 40 0 t40 0 q20 -4 40 0 t40 0 q20 -4 40 0 t40 0 q20 -4 40 0 t40 0 q20 -4 40 0 t40 0 q20 -4 40 0 t40 0 q20 -4 40 0 t40 0 q20 -4 40 0 t40 0 q20 -4 40 0 t40 0 q20 -4 40 0 t40 0" fill="none" stroke="#ffd27a" stroke-width="1.20" opacity="0.28"/><path d="M-80 334 q20 -5 40 0 t40 0 q20 -5 40 0 t40 0 q20 -5 40 0 t40 0 q20 -5 40 0 t40 0 q20 -5 40 0 t40 0 q20 -5 40 0 t40 0 q20 -5 40 0 t40 0 q20 -5 40 0 t40 0 q20 -5 40 0 t40 0 q20 -5 40 0 t40 0 q20 -5 40 0 t40 0 q20 -5 40 0 t40 0 q20 -5 40 0 t40 0 q20 -5 40 0 t40 0 q20 -5 40 0 t40 0 q20 -5 40 0 t40 0 q20 -5 40 0 t40 0 q20 -5 40 0 t40 0" fill="none" stroke="#ffd27a" stroke-width="1.08" opacity="0.25"/><path d="M-80 350 q20 -6 40 0 t40 0 q20 -6 40 0 t40 0 q20 -6 40 0 t40 0 q20 -6 40 0 t40 0 q20 -6 40 0 t40 0 q20 -6 40 0 t40 0 q20 -6 40 0 t40 0 q20 -6 40 0 t40 0 q20 -6 40 0 t40 0 q20 -6 40 0 t40 0 q20 -6 40 0 t40 0 q20 -6 40 0 t40 0 q20 -6 40 0 t40 0 q20 -6 40 0 t40 0 q20 -6 40 0 t40 0 q20 -6 40 0 t40 0 q20 -6 40 0 t40 0 q20 -6 40 0 t40 0" fill="none" stroke="#ffd27a" stroke-width="0.96" opacity="0.22"/><path d="M-80 366 q20 -7 40 0 t40 0 q20 -7 40 0 t40 0 q20 -7 40 0 t40 0 q20 -7 40 0 t40 0 q20 -7 40 0 t40 0 q20 -7 40 0 t40 0 q20 -7 40 0 t40 0 q20 -7 40 0 t40 0 q20 -7 40 0 t40 0 q20 -7 40 0 t40 0 q20 -7 40 0 t40 0 q20 -7 40 0 t40 0 q20 -7 40 0 t40 0 q20 -7 40 0 t40 0 q20 -7 40 0 t40 0 q20 -7 40 0 t40 0 q20 -7 40 0 t40 0 q20 -7 40 0 t40 0" fill="none" stroke="#ffd27a" stroke-width="0.84" opacity="0.19"/><path d="M-80 382 q20 -8 40 0 t40 0 q20 -8 40 0 t40 0 q20 -8 40 0 t40 0 q20 -8 40 0 t40 0 q20 -8 40 0 t40 0 q20 -8 40 0 t40 0 q20 -8 40 0 t40 0 q20 -8 40 0 t40 0 q20 -8 40 0 t40 0 q20 -8 40 0 t40 0 q20 -8 40 0 t40 0 q20 -8 40 0 t40 0 q20 -8 40 0 t40 0 q20 -8 40 0 t40 0 q20 -8 40 0 t40 0 q20 -8 40 0 t40 0 q20 -8 40 0 t40 0 q20 -8 40 0 t40 0" fill="none" stroke="#ffd27a" stroke-width="0.72" opacity="0.16"/><path d="M-80 398 q20 -9 40 0 t40 0 q20 -9 40 0 t40 0 q20 -9 40 0 t40 0 q20 -9 40 0 t40 0 q20 -9 40 0 t40 0 q20 -9 40 0 t40 0 q20 -9 40 0 t40 0 q20 -9 40 0 t40 0 q20 -9 40 0 t40 0 q20 -9 40 0 t40 0 q20 -9 40 0 t40 0 q20 -9 40 0 t40 0 q20 -9 40 0 t40 0 q20 -9 40 0 t40 0 q20 -9 40 0 t40 0 q20 -9 40 0 t40 0 q20 -9 40 0 t40 0 q20 -9 40 0 t40 0" fill="none" stroke="#ffd27a" stroke-width="0.60" opacity="0.13"/><path d="M-80 414 q20 -10 40 0 t40 0 q20 -10 40 0 t40 0 q20 -10 40 0 t40 0 q20 -10 40 0 t40 0 q20 -10 40 0 t40 0 q20 -10 40 0 t40 0 q20 -10 40 0 t40 0 q20 -10 40 0 t40 0 q20 -10 40 0 t40 0 q20 -10 40 0 t40 0 q20 -10 40 0 t40 0 q20 -10 40 0 t40 0 q20 -10 40 0 t40 0 q20 -10 40 0 t40 0 q20 -10 40 0 t40 0 q20 -10 40 0 t40 0 q20 -10 40 0 t40 0 q20 -10 40 0 t40 0" fill="none" stroke="#ffd27a" stroke-width="0.48" opacity="0.10"/></g>

    <!-- the wave, breathing slightly like a set rolling through -->
    <g>
      <animateTransform attributeName="transform" type="translate" values="0 0;0 5;0 0" dur="6s" repeatCount="indefinite"/>
      <path d="M0 300 C120 294 240 290 340 265.4 C400 241.2 440 230.8 480 230.8 C545 230.8 572 248.8 548 264.0 C528 275.1 560 279.2 630 290.3 C780 304 980 296 1200 300 L1200 420 L0 420 Z" fill="url(#water)"/>
      <path d="M360 268.2 C410 246.0 445 235.6 480 235.6 C535 235.6 556 250.2 540 262.6 C500 265.4 440 268.2 400 279.2 C390 279.2 370 272.3 360 268.2 Z" fill="url(#face)"/>
      <path d="M548 265.4 C600 279.2 660 293.1 760 302 C700 314 600 312 548 279.2 Z" fill="#ffffff" opacity="0.55" filter="url(#soft)"/>
      <g transform="translate(534 279.2)">
    <animateTransform attributeName="transform" type="translate" values="534 279.2;540 282.2;534 279.2" dur="6s" repeatCount="indefinite"/>
    <g transform="rotate(-8)">
      <!-- board -->
      <path d="M-22 6 Q0 1 24 4 Q0 10 -22 6 Z" fill="#0b1020"/>
      <!-- legs -->
      <path d="M-6 4 L-3 -6 M6 4 L3 -6" stroke="#0b1020" stroke-width="2.4" stroke-linecap="round" fill="none"/>
      <!-- body, leaning forward -->
      <path d="M0 -6 L4 -17" stroke="#0b1020" stroke-width="2.8" stroke-linecap="round"/>
      <!-- arms out for balance -->
      <path d="M4 -14 L-6 -18 M4 -14 L14 -11" stroke="#0b1020" stroke-width="2.2" stroke-linecap="round" fill="none"/>
      <!-- head -->
      <circle cx="5.5" cy="-21" r="3.4" fill="#0b1020"/>
    </g>
  </g>
      <path d="M352 264.0 C405 240.5 442 230.1 480 230.1 C546 230.1 574 248.1 549 264.0" fill="none" stroke="#ffffff" stroke-width="5" stroke-linecap="round" opacity="0.95" filter="url(#glow)"/>
    </g>

    <!-- name -->
    <g font-family="-apple-system, 'Segoe UI', Helvetica, Arial, sans-serif">
      <text x="64" y="118" font-size="66" font-weight="800" fill="#ffffff" letter-spacing="-1.5">Rob Conery</text>
      <text x="66" y="156" font-size="22" font-weight="500" fill="#ffd9a8">Honolulu · Postgres · AI · books, video, and shipping things</text>
      <text x="64" y="394" font-size="16" fill="#cfe8f7" opacity="0.95">South shore buoy: 3.6 ft swell at 12 s from the SSE</text>
      <text x="1136" y="394" font-size="16" fill="#cfe8f7" opacity="0.95" text-anchor="end">Sunset 6:19 pm HST · Oct 2, 11:58 am HST</text>
    </g>
  </g>
</svg>
